#define width 7
#define height 7

static unsigned char bits[] = {
0x49,
0x2a,
0x00,
0x6b,
0x00,
0x2a,
0x49}

