#define pacman_width 8
#define pacman_height 8
static unsigned char pacman_bits[] = {
 0x0a, 0x12, 0x13, 0x14, 0x05, 0x06, 0x07, 0x08 };
