#define test_width 8
#define test_height 8
static unsigned char test_bits[] = {
 0xFF, 0x00, 0x7E, 0x00, 0x3C, 0x00, 0x18, 0x00 };
